<svg xmlns="http://www.w3.org/2000/svg" viewBox="0 0 1e3 800" font-family="'Hiragino Sans', 'Yu Gothic', 'Meiryo', sans-serif"><defs><linearGradient id="bgGrad" x1="0" y1="0" x2="100%" y2="100%"><stop offset="0" style="stop-color:#0d0d1a"/><stop offset="50%" style="stop-color:#1a1a2e"/><stop offset="100%" style="stop-color:#0d0d1a"/></linearGradient><linearGradient id="hiraGrad" x1="0" y1="0" x2="0" y2="100%"><stop offset="0" style="stop-color:#ff6b8a"/><stop offset="100%" style="stop-color:#ee0979"/></linearGradient><linearGradient id="kataGrad" x1="0" y1="0" x2="0" y2="100%"><stop offset="0" style="stop-color:#4facfe"/><stop offset="100%" style="stop-color:#00f2fe"/></linearGradient><filter id="glowPink"><feGaussianBlur stdDeviation="2" result="blur"/><feMerge><feMergeNode in="blur"/><feMergeNode in="SourceGraphic"/></feMerge></filter><filter id="glowBlue"><feGaussianBlur stdDeviation="2" result="blur"/><feMerge><feMergeNode in="blur"/><feMergeNode in="SourceGraphic"/></feMerge></filter><filter id="softShadow"><feDropShadow dx="0" dy="2" stdDeviation="3" flood-color="#000" flood-opacity=".5"/></filter></defs><rect width="1e3" height="800" fill="url(#bgGrad)"/><rect x="15" y="15" width="970" height="770" rx="12" fill="none" stroke="#4a4a6a" stroke-width="1.5" opacity=".3"/><rect x="23" y="23" width="954" height="754" rx="8" fill="none" stroke="#4a4a6a" stroke-width=".5" opacity=".15"/><text x="500" y="55" text-anchor="middle" fill="#fff" font-size="30" font-weight="bold" filter="url(#glowPink)">日本語 — ひらがな &amp; カタカナ</text><text x="500" y="80" text-anchor="middle" fill="#88a" font-size="14" letter-spacing="3">JAPANESE HIRAGANA &amp; KATAKANA — 46 BASIC CHARACTERS EACH</text><line x1="80" y1="98" x2="920" y2="98" stroke="#4a4a6a" stroke-width=".5" opacity=".4"/><text x="275" y="125" text-anchor="middle" fill="#ff6b8a" font-size="18" font-weight="bold" filter="url(#glowPink)">HIRAGANA</text><text x="725" y="125" text-anchor="middle" fill="#4facfe" font-size="18" font-weight="bold" filter="url(#glowBlue)">KATAKANA</text><g filter="url(#softShadow)"><rect x="40" y="140" width="55" height="65" rx="5" fill="#1a0a1a" stroke="#ff6b8a" stroke-width=".7" opacity=".7"/><text x="67" y="180" text-anchor="middle" fill="#ff8fab" font-size="34">あ</text><text x="67" y="200" text-anchor="middle" fill="#656" font-size="9">a</text><rect x="105" y="140" width="55" height="65" rx="5" fill="#1a0a1a" stroke="#ff6b8a" stroke-width=".7" opacity=".7"/><text x="132" y="180" text-anchor="middle" fill="#ff8fab" font-size="34">い</text><text x="132" y="200" text-anchor="middle" fill="#656" font-size="9">i</text><rect x="170" y="140" width="55" height="65" rx="5" fill="#1a0a1a" stroke="#ff6b8a" stroke-width=".7" opacity=".7"/><text x="197" y="180" text-anchor="middle" fill="#ff8fab" font-size="34">う</text><text x="197" y="200" text-anchor="middle" fill="#656" font-size="9">u</text><rect x="235" y="140" width="55" height="65" rx="5" fill="#1a0a1a" stroke="#ff6b8a" stroke-width=".7" opacity=".7"/><text x="262" y="180" text-anchor="middle" fill="#ff8fab" font-size="34">え</text><text x="262" y="200" text-anchor="middle" fill="#656" font-size="9">e</text><rect x="300" y="140" width="55" height="65" rx="5" fill="#1a0a1a" stroke="#ff6b8a" stroke-width=".7" opacity=".7"/><text x="327" y="180" text-anchor="middle" fill="#ff8fab" font-size="34">お</text><text x="327" y="200" text-anchor="middle" fill="#656" font-size="9">o</text><rect x="40" y="215" width="55" height="65" rx="5" fill="#1a0a1a" stroke="#ff6b8a" stroke-width=".7" opacity=".7"/><text x="67" y="255" text-anchor="middle" fill="#e8a0b0" font-size="34">か</text><text x="67" y="275" text-anchor="middle" fill="#656" font-size="9">ka</text><rect x="105" y="215" width="55" height="65" rx="5" fill="#1a0a1a" stroke="#ff6b8a" stroke-width=".7" opacity=".7"/><text x="132" y="255" text-anchor="middle" fill="#e8a0b0" font-size="34">き</text><text x="132" y="275" text-anchor="middle" fill="#656" font-size="9">ki</text><rect x="170" y="215" width="55" height="65" rx="5" fill="#1a0a1a" stroke="#ff6b8a" stroke-width=".7" opacity=".7"/><text x="197" y="255" text-anchor="middle" fill="#e8a0b0" font-size="34">く</text><text x="197" y="275" text-anchor="middle" fill="#656" font-size="9">ku</text><rect x="235" y="215" width="55" height="65" rx="5" fill="#1a0a1a" stroke="#ff6b8a" stroke-width=".7" opacity=".7"/><text x="262" y="255" text-anchor="middle" fill="#e8a0b0" font-size="34">け</text><text x="262" y="275" text-anchor="middle" fill="#656" font-size="9">ke</text><rect x="300" y="215" width="55" height="65" rx="5" fill="#1a0a1a" stroke="#ff6b8a" stroke-width=".7" opacity=".7"/><text x="327" y="255" text-anchor="middle" fill="#e8a0b0" font-size="34">こ</text><text x="327" y="275" text-anchor="middle" fill="#656" font-size="9">ko</text><rect x="40" y="290" width="55" height="65" rx="5" fill="#1a0a1a" stroke="#ff6b8a" stroke-width=".7" opacity=".7"/><text x="67" y="330" text-anchor="middle" fill="#e8a0b0" font-size="34">さ</text><text x="67" y="350" text-anchor="middle" fill="#656" font-size="9">sa</text><rect x="105" y="290" width="55" height="65" rx="5" fill="#1a0a1a" stroke="#ff6b8a" stroke-width=".7" opacity=".7"/><text x="132" y="330" text-anchor="middle" fill="#e8a0b0" font-size="34">し</text><text x="132" y="350" text-anchor="middle" fill="#656" font-size="9">shi</text><rect x="170" y="290" width="55" height="65" rx="5" fill="#1a0a1a" stroke="#ff6b8a" stroke-width=".7" opacity=".7"/><text x="197" y="330" text-anchor="middle" fill="#e8a0b0" font-size="34">す</text><text x="197" y="350" text-anchor="middle" fill="#656" font-size="9">su</text><rect x="235" y="290" width="55" height="65" rx="5" fill="#1a0a1a" stroke="#ff6b8a" stroke-width=".7" opacity=".7"/><text x="262" y="330" text-anchor="middle" fill="#e8a0b0" font-size="34">せ</text><text x="262" y="350" text-anchor="middle" fill="#656" font-size="9">se</text><rect x="300" y="290" width="55" height="65" rx="5" fill="#1a0a1a" stroke="#ff6b8a" stroke-width=".7" opacity=".7"/><text x="327" y="330" text-anchor="middle" fill="#e8a0b0" font-size="34">そ</text><text x="327" y="350" text-anchor="middle" fill="#656" font-size="9">so</text><rect x="40" y="365" width="55" height="65" rx="5" fill="#1a0a1a" stroke="#ff6b8a" stroke-width=".7" opacity=".7"/><text x="67" y="405" text-anchor="middle" fill="#e8a0b0" font-size="34">た</text><text x="67" y="425" text-anchor="middle" fill="#656" font-size="9">ta</text><rect x="105" y="365" width="55" height="65" rx="5" fill="#1a0a1a" stroke="#ff6b8a" stroke-width=".7" opacity=".7"/><text x="132" y="405" text-anchor="middle" fill="#e8a0b0" font-size="34">ち</text><text x="132" y="425" text-anchor="middle" fill="#656" font-size="9">chi</text><rect x="170" y="365" width="55" height="65" rx="5" fill="#1a0a1a" stroke="#ff6b8a" stroke-width=".7" opacity=".7"/><text x="197" y="405" text-anchor="middle" fill="#e8a0b0" font-size="34">つ</text><text x="197" y="425" text-anchor="middle" fill="#656" font-size="9">tsu</text><rect x="235" y="365" width="55" height="65" rx="5" fill="#1a0a1a" stroke="#ff6b8a" stroke-width=".7" opacity=".7"/><text x="262" y="405" text-anchor="middle" fill="#e8a0b0" font-size="34">て</text><text x="262" y="425" text-anchor="middle" fill="#656" font-size="9">te</text><rect x="300" y="365" width="55" height="65" rx="5" fill="#1a0a1a" stroke="#ff6b8a" stroke-width=".7" opacity=".7"/><text x="327" y="405" text-anchor="middle" fill="#e8a0b0" font-size="34">と</text><text x="327" y="425" text-anchor="middle" fill="#656" font-size="9">to</text><rect x="40" y="440" width="55" height="65" rx="5" fill="#1a0a1a" stroke="#ff6b8a" stroke-width=".7" opacity=".7"/><text x="67" y="480" text-anchor="middle" fill="#d090a0" font-size="34">な</text><text x="67" y="500" text-anchor="middle" fill="#656" font-size="9">na</text><rect x="105" y="440" width="55" height="65" rx="5" fill="#1a0a1a" stroke="#ff6b8a" stroke-width=".7" opacity=".7"/><text x="132" y="480" text-anchor="middle" fill="#d090a0" font-size="34">に</text><text x="132" y="500" text-anchor="middle" fill="#656" font-size="9">ni</text><rect x="170" y="440" width="55" height="65" rx="5" fill="#1a0a1a" stroke="#ff6b8a" stroke-width=".7" opacity=".7"/><text x="197" y="480" text-anchor="middle" fill="#d090a0" font-size="34">ぬ</text><text x="197" y="500" text-anchor="middle" fill="#656" font-size="9">nu</text><rect x="235" y="440" width="55" height="65" rx="5" fill="#1a0a1a" stroke="#ff6b8a" stroke-width=".7" opacity=".7"/><text x="262" y="480" text-anchor="middle" fill="#d090a0" font-size="34">ね</text><text x="262" y="500" text-anchor="middle" fill="#656" font-size="9">ne</text><rect x="300" y="440" width="55" height="65" rx="5" fill="#1a0a1a" stroke="#ff6b8a" stroke-width=".7" opacity=".7"/><text x="327" y="480" text-anchor="middle" fill="#d090a0" font-size="34">の</text><text x="327" y="500" text-anchor="middle" fill="#656" font-size="9">no</text><rect x="40" y="515" width="55" height="65" rx="5" fill="#1a0a1a" stroke="#ff6b8a" stroke-width=".7" opacity=".7"/><text x="67" y="555" text-anchor="middle" fill="#d090a0" font-size="34">は</text><text x="67" y="575" text-anchor="middle" fill="#656" font-size="9">ha</text><rect x="105" y="515" width="55" height="65" rx="5" fill="#1a0a1a" stroke="#ff6b8a" stroke-width=".7" opacity=".7"/><text x="132" y="555" text-anchor="middle" fill="#d090a0" font-size="34">ひ</text><text x="132" y="575" text-anchor="middle" fill="#656" font-size="9">hi</text><rect x="170" y="515" width="55" height="65" rx="5" fill="#1a0a1a" stroke="#ff6b8a" stroke-width=".7" opacity=".7"/><text x="197" y="555" text-anchor="middle" fill="#d090a0" font-size="34">ふ</text><text x="197" y="575" text-anchor="middle" fill="#656" font-size="9">fu</text><rect x="235" y="515" width="55" height="65" rx="5" fill="#1a0a1a" stroke="#ff6b8a" stroke-width=".7" opacity=".7"/><text x="262" y="555" text-anchor="middle" fill="#d090a0" font-size="34">へ</text><text x="262" y="575" text-anchor="middle" fill="#656" font-size="9">he</text><rect x="300" y="515" width="55" height="65" rx="5" fill="#1a0a1a" stroke="#ff6b8a" stroke-width=".7" opacity=".7"/><text x="327" y="555" text-anchor="middle" fill="#d090a0" font-size="34">ほ</text><text x="327" y="575" text-anchor="middle" fill="#656" font-size="9">ho</text><rect x="40" y="590" width="55" height="65" rx="5" fill="#1a0a1a" stroke="#ff6b8a" stroke-width=".7" opacity=".7"/><text x="67" y="630" text-anchor="middle" fill="#d090a0" font-size="34">ま</text><text x="67" y="650" text-anchor="middle" fill="#656" font-size="9">ma</text><rect x="105" y="590" width="55" height="65" rx="5" fill="#1a0a1a" stroke="#ff6b8a" stroke-width=".7" opacity=".7"/><text x="132" y="630" text-anchor="middle" fill="#d090a0" font-size="34">み</text><text x="132" y="650" text-anchor="middle" fill="#656" font-size="9">mi</text><rect x="170" y="590" width="55" height="65" rx="5" fill="#1a0a1a" stroke="#ff6b8a" stroke-width=".7" opacity=".7"/><text x="197" y="630" text-anchor="middle" fill="#d090a0" font-size="34">む</text><text x="197" y="650" text-anchor="middle" fill="#656" font-size="9">mu</text><rect x="235" y="590" width="55" height="65" rx="5" fill="#1a0a1a" stroke="#ff6b8a" stroke-width=".7" opacity=".7"/><text x="262" y="630" text-anchor="middle" fill="#d090a0" font-size="34">め</text><text x="262" y="650" text-anchor="middle" fill="#656" font-size="9">me</text><rect x="300" y="590" width="55" height="65" rx="5" fill="#1a0a1a" stroke="#ff6b8a" stroke-width=".7" opacity=".7"/><text x="327" y="630" text-anchor="middle" fill="#d090a0" font-size="34">も</text><text x="327" y="650" text-anchor="middle" fill="#656" font-size="9">mo</text><rect x="40" y="665" width="55" height="65" rx="5" fill="#1a0a1a" stroke="#ff6b8a" stroke-width=".7" opacity=".7"/><text x="67" y="705" text-anchor="middle" fill="#d090a0" font-size="34">や</text><text x="67" y="725" text-anchor="middle" fill="#656" font-size="9">ya</text><rect x="105" y="665" width="55" height="65" rx="5" fill="#1a0a1a" stroke="#ff6b8a" stroke-width=".7" opacity=".7"/><text x="132" y="705" text-anchor="middle" fill="#d090a0" font-size="34">ゆ</text><text x="132" y="725" text-anchor="middle" fill="#656" font-size="9">yu</text><rect x="170" y="665" width="55" height="65" rx="5" fill="#1a0a1a" stroke="#ff6b8a" stroke-width=".7" opacity=".7"/><text x="197" y="705" text-anchor="middle" fill="#d090a0" font-size="34">よ</text><text x="197" y="725" text-anchor="middle" fill="#656" font-size="9">yo</text><rect x="235" y="665" width="55" height="65" rx="5" fill="#1a0a1a" stroke="#ff6b8a" stroke-width=".7" opacity=".7"/><text x="262" y="705" text-anchor="middle" fill="#d090a0" font-size="34">ら</text><text x="262" y="725" text-anchor="middle" fill="#656" font-size="9">ra</text><rect x="300" y="665" width="55" height="65" rx="5" fill="#1a0a1a" stroke="#ff6b8a" stroke-width=".7" opacity=".7"/><text x="327" y="705" text-anchor="middle" fill="#d090a0" font-size="34">り</text><text x="327" y="725" text-anchor="middle" fill="#656" font-size="9">ri</text><rect x="40" y="740" width="55" height="50" rx="5" fill="#1a0a1a" stroke="#ff6b8a" stroke-width=".7" opacity=".7"/><text x="67" y="775" text-anchor="middle" fill="#d090a0" font-size="34">る</text><text x="67" y="785" text-anchor="middle" fill="#656" font-size="8">ru</text><rect x="105" y="740" width="55" height="50" rx="5" fill="#1a0a1a" stroke="#ff6b8a" stroke-width=".7" opacity=".7"/><text x="132" y="775" text-anchor="middle" fill="#d090a0" font-size="34">れ</text><text x="132" y="785" text-anchor="middle" fill="#656" font-size="8">re</text><rect x="170" y="740" width="55" height="50" rx="5" fill="#1a0a1a" stroke="#ff6b8a" stroke-width=".7" opacity=".7"/><text x="197" y="775" text-anchor="middle" fill="#d090a0" font-size="34">ろ</text><text x="197" y="785" text-anchor="middle" fill="#656" font-size="8">ro</text><rect x="235" y="740" width="55" height="50" rx="5" fill="#1a0a1a" stroke="#ff6b8a" stroke-width=".7" opacity=".7"/><text x="262" y="775" text-anchor="middle" fill="#ff6b8a" font-size="34" filter="url(#glowPink)">ん</text><text x="262" y="785" text-anchor="middle" fill="#656" font-size="8">n</text></g><g filter="url(#softShadow)"><rect x="400" y="140" width="55" height="65" rx="5" fill="#0a0a1a" stroke="#4facfe" stroke-width=".7" opacity=".7"/><text x="427" y="180" text-anchor="middle" fill="#6ab0ff" font-size="34">ア</text><text x="427" y="200" text-anchor="middle" fill="#456" font-size="9">a</text><rect x="465" y="140" width="55" height="65" rx="5" fill="#0a0a1a" stroke="#4facfe" stroke-width=".7" opacity=".7"/><text x="492" y="180" text-anchor="middle" fill="#6ab0ff" font-size="34">イ</text><text x="492" y="200" text-anchor="middle" fill="#456" font-size="9">i</text><rect x="530" y="140" width="55" height="65" rx="5" fill="#0a0a1a" stroke="#4facfe" stroke-width=".7" opacity=".7"/><text x="557" y="180" text-anchor="middle" fill="#6ab0ff" font-size="34">ウ</text><text x="557" y="200" text-anchor="middle" fill="#456" font-size="9">u</text><rect x="595" y="140" width="55" height="65" rx="5" fill="#0a0a1a" stroke="#4facfe" stroke-width=".7" opacity=".7"/><text x="622" y="180" text-anchor="middle" fill="#6ab0ff" font-size="34">エ</text><text x="622" y="200" text-anchor="middle" fill="#456" font-size="9">e</text><rect x="660" y="140" width="55" height="65" rx="5" fill="#0a0a1a" stroke="#4facfe" stroke-width=".7" opacity=".7"/><text x="687" y="180" text-anchor="middle" fill="#6ab0ff" font-size="34">オ</text><text x="687" y="200" text-anchor="middle" fill="#456" font-size="9">o</text><rect x="400" y="215" width="55" height="65" rx="5" fill="#0a0a1a" stroke="#4facfe" stroke-width=".7" opacity=".7"/><text x="427" y="255" text-anchor="middle" fill="#7ab8ff" font-size="34">カ</text><text x="427" y="275" text-anchor="middle" fill="#456" font-size="9">ka</text><rect x="465" y="215" width="55" height="65" rx="5" fill="#0a0a1a" stroke="#4facfe" stroke-width=".7" opacity=".7"/><text x="492" y="255" text-anchor="middle" fill="#7ab8ff" font-size="34">キ</text><text x="492" y="275" text-anchor="middle" fill="#456" font-size="9">ki</text><rect x="530" y="215" width="55" height="65" rx="5" fill="#0a0a1a" stroke="#4facfe" stroke-width=".7" opacity=".7"/><text x="557" y="255" text-anchor="middle" fill="#7ab8ff" font-size="34">ク</text><text x="557" y="275" text-anchor="middle" fill="#456" font-size="9">ku</text><rect x="595" y="215" width="55" height="65" rx="5" fill="#0a0a1a" stroke="#4facfe" stroke-width=".7" opacity=".7"/><text x="622" y="255" text-anchor="middle" fill="#7ab8ff" font-size="34">ケ</text><text x="622" y="275" text-anchor="middle" fill="#456" font-size="9">ke</text><rect x="660" y="215" width="55" height="65" rx="5" fill="#0a0a1a" stroke="#4facfe" stroke-width=".7" opacity=".7"/><text x="687" y="255" text-anchor="middle" fill="#7ab8ff" font-size="34">コ</text><text x="687" y="275" text-anchor="middle" fill="#456" font-size="9">ko</text><rect x="400" y="290" width="55" height="65" rx="5" fill="#0a0a1a" stroke="#4facfe" stroke-width=".7" opacity=".7"/><text x="427" y="330" text-anchor="middle" fill="#7ab8ff" font-size="34">サ</text><text x="427" y="350" text-anchor="middle" fill="#456" font-size="9">sa</text><rect x="465" y="290" width="55" height="65" rx="5" fill="#0a0a1a" stroke="#4facfe" stroke-width=".7" opacity=".7"/><text x="492" y="330" text-anchor="middle" fill="#7ab8ff" font-size="34">シ</text><text x="492" y="350" text-anchor="middle" fill="#456" font-size="9">shi</text><rect x="530" y="290" width="55" height="65" rx="5" fill="#0a0a1a" stroke="#4facfe" stroke-width=".7" opacity=".7"/><text x="557" y="330" text-anchor="middle" fill="#7ab8ff" font-size="34">ス</text><text x="557" y="350" text-anchor="middle" fill="#456" font-size="9">su</text><rect x="595" y="290" width="55" height="65" rx="5" fill="#0a0a1a" stroke="#4facfe" stroke-width=".7" opacity=".7"/><text x="622" y="330" text-anchor="middle" fill="#7ab8ff" font-size="34">セ</text><text x="622" y="350" text-anchor="middle" fill="#456" font-size="9">se</text><rect x="660" y="290" width="55" height="65" rx="5" fill="#0a0a1a" stroke="#4facfe" stroke-width=".7" opacity=".7"/><text x="687" y="330" text-anchor="middle" fill="#7ab8ff" font-size="34">ソ</text><text x="687" y="350" text-anchor="middle" fill="#456" font-size="9">so</text><rect x="400" y="365" width="55" height="65" rx="5" fill="#0a0a1a" stroke="#4facfe" stroke-width=".7" opacity=".7"/><text x="427" y="405" text-anchor="middle" fill="#7ab8ff" font-size="34">タ</text><text x="427" y="425" text-anchor="middle" fill="#456" font-size="9">ta</text><rect x="465" y="365" width="55" height="65" rx="5" fill="#0a0a1a" stroke="#4facfe" stroke-width=".7" opacity=".7"/><text x="492" y="405" text-anchor="middle" fill="#7ab8ff" font-size="34">チ</text><text x="492" y="425" text-anchor="middle" fill="#456" font-size="9">chi</text><rect x="530" y="365" width="55" height="65" rx="5" fill="#0a0a1a" stroke="#4facfe" stroke-width=".7" opacity=".7"/><text x="557" y="405" text-anchor="middle" fill="#7ab8ff" font-size="34">ツ</text><text x="557" y="425" text-anchor="middle" fill="#456" font-size="9">tsu</text><rect x="595" y="365" width="55" height="65" rx="5" fill="#0a0a1a" stroke="#4facfe" stroke-width=".7" opacity=".7"/><text x="622" y="405" text-anchor="middle" fill="#7ab8ff" font-size="34">テ</text><text x="622" y="425" text-anchor="middle" fill="#456" font-size="9">te</text><rect x="660" y="365" width="55" height="65" rx="5" fill="#0a0a1a" stroke="#4facfe" stroke-width=".7" opacity=".7"/><text x="687" y="405" text-anchor="middle" fill="#7ab8ff" font-size="34">ト</text><text x="687" y="425" text-anchor="middle" fill="#456" font-size="9">to</text><rect x="400" y="440" width="55" height="65" rx="5" fill="#0a0a1a" stroke="#4facfe" stroke-width=".7" opacity=".7"/><text x="427" y="480" text-anchor="middle" fill="#7ab8ff" font-size="34">ナ</text><text x="427" y="500" text-anchor="middle" fill="#456" font-size="9">na</text><rect x="465" y="440" width="55" height="65" rx="5" fill="#0a0a1a" stroke="#4facfe" stroke-width=".7" opacity=".7"/><text x="492" y="480" text-anchor="middle" fill="#7ab8ff" font-size="34">ニ</text><text x="492" y="500" text-anchor="middle" fill="#456" font-size="9">ni</text><rect x="530" y="440" width="55" height="65" rx="5" fill="#0a0a1a" stroke="#4facfe" stroke-width=".7" opacity=".7"/><text x="557" y="480" text-anchor="middle" fill="#7ab8ff" font-size="34">ヌ</text><text x="557" y="500" text-anchor="middle" fill="#456" font-size="9">nu</text><rect x="595" y="440" width="55" height="65" rx="5" fill="#0a0a1a" stroke="#4facfe" stroke-width=".7" opacity=".7"/><text x="622" y="480" text-anchor="middle" fill="#7ab8ff" font-size="34">ネ</text><text x="622" y="500" text-anchor="middle" fill="#456" font-size="9">ne</text><rect x="660" y="440" width="55" height="65" rx="5" fill="#0a0a1a" stroke="#4facfe" stroke-width=".7" opacity=".7"/><text x="687" y="480" text-anchor="middle" fill="#7ab8ff" font-size="34">ノ</text><text x="687" y="500" text-anchor="middle" fill="#456" font-size="9">no</text><rect x="400" y="515" width="55" height="65" rx="5" fill="#0a0a1a" stroke="#4facfe" stroke-width=".7" opacity=".7"/><text x="427" y="555" text-anchor="middle" fill="#7ab8ff" font-size="34">ハ</text><text x="427" y="575" text-anchor="middle" fill="#456" font-size="9">ha</text><rect x="465" y="515" width="55" height="65" rx="5" fill="#0a0a1a" stroke="#4facfe" stroke-width=".7" opacity=".7"/><text x="492" y="555" text-anchor="middle" fill="#7ab8ff" font-size="34">ヒ</text><text x="492" y="575" text-anchor="middle" fill="#456" font-size="9">hi</text><rect x="530" y="515" width="55" height="65" rx="5" fill="#0a0a1a" stroke="#4facfe" stroke-width=".7" opacity=".7"/><text x="557" y="555" text-anchor="middle" fill="#7ab8ff" font-size="34">フ</text><text x="557" y="575" text-anchor="middle" fill="#456" font-size="9">fu</text><rect x="595" y="515" width="55" height="65" rx="5" fill="#0a0a1a" stroke="#4facfe" stroke-width=".7" opacity=".7"/><text x="622" y="555" text-anchor="middle" fill="#7ab8ff" font-size="34">ヘ</text><text x="622" y="575" text-anchor="middle" fill="#456" font-size="9">he</text><rect x="660" y="515" width="55" height="65" rx="5" fill="#0a0a1a" stroke="#4facfe" stroke-width=".7" opacity=".7"/><text x="687" y="555" text-anchor="middle" fill="#7ab8ff" font-size="34">ホ</text><text x="687" y="575" text-anchor="middle" fill="#456" font-size="9">ho</text><rect x="400" y="590" width="55" height="65" rx="5" fill="#0a0a1a" stroke="#4facfe" stroke-width=".7" opacity=".7"/><text x="427" y="630" text-anchor="middle" fill="#7ab8ff" font-size="34">マ</text><text x="427" y="650" text-anchor="middle" fill="#456" font-size="9">ma</text><rect x="465" y="590" width="55" height="65" rx="5" fill="#0a0a1a" stroke="#4facfe" stroke-width=".7" opacity=".7"/><text x="492" y="630" text-anchor="middle" fill="#7ab8ff" font-size="34">ミ</text><text x="492" y="650" text-anchor="middle" fill="#456" font-size="9">mi</text><rect x="530" y="590" width="55" height="65" rx="5" fill="#0a0a1a" stroke="#4facfe" stroke-width=".7" opacity=".7"/><text x="557" y="630" text-anchor="middle" fill="#7ab8ff" font-size="34">ム</text><text x="557" y="650" text-anchor="middle" fill="#456" font-size="9">mu</text><rect x="595" y="590" width="55" height="65" rx="5" fill="#0a0a1a" stroke="#4facfe" stroke-width=".7" opacity=".7"/><text x="622" y="630" text-anchor="middle" fill="#7ab8ff" font-size="34">メ</text><text x="622" y="650" text-anchor="middle" fill="#456" font-size="9">me</text><rect x="660" y="590" width="55" height="65" rx="5" fill="#0a0a1a" stroke="#4facfe" stroke-width=".7" opacity=".7"/><text x="687" y="630" text-anchor="middle" fill="#7ab8ff" font-size="34">モ</text><text x="687" y="650" text-anchor="middle" fill="#456" font-size="9">mo</text><rect x="400" y="665" width="55" height="65" rx="5" fill="#0a0a1a" stroke="#4facfe" stroke-width=".7" opacity=".7"/><text x="427" y="705" text-anchor="middle" fill="#7ab8ff" font-size="34">ヤ</text><text x="427" y="725" text-anchor="middle" fill="#456" font-size="9">ya</text><rect x="465" y="665" width="55" height="65" rx="5" fill="#0a0a1a" stroke="#4facfe" stroke-width=".7" opacity=".7"/><text x="492" y="705" text-anchor="middle" fill="#7ab8ff" font-size="34">ユ</text><text x="492" y="725" text-anchor="middle" fill="#456" font-size="9">yu</text><rect x="530" y="665" width="55" height="65" rx="5" fill="#0a0a1a" stroke="#4facfe" stroke-width=".7" opacity=".7"/><text x="557" y="705" text-anchor="middle" fill="#7ab8ff" font-size="34">ヨ</text><text x="557" y="725" text-anchor="middle" fill="#456" font-size="9">yo</text><rect x="595" y="665" width="55" height="65" rx="5" fill="#0a0a1a" stroke="#4facfe" stroke-width=".7" opacity=".7"/><text x="622" y="705" text-anchor="middle" fill="#7ab8ff" font-size="34">ラ</text><text x="622" y="725" text-anchor="middle" fill="#456" font-size="9">ra</text><rect x="660" y="665" width="55" height="65" rx="5" fill="#0a0a1a" stroke="#4facfe" stroke-width=".7" opacity=".7"/><text x="687" y="705" text-anchor="middle" fill="#7ab8ff" font-size="34">リ</text><text x="687" y="725" text-anchor="middle" fill="#456" font-size="9">ri</text><rect x="400" y="740" width="55" height="50" rx="5" fill="#0a0a1a" stroke="#4facfe" stroke-width=".7" opacity=".7"/><text x="427" y="775" text-anchor="middle" fill="#7ab8ff" font-size="34">ル</text><text x="427" y="785" text-anchor="middle" fill="#456" font-size="8">ru</text><rect x="465" y="740" width="55" height="50" rx="5" fill="#0a0a1a" stroke="#4facfe" stroke-width=".7" opacity=".7"/><text x="492" y="775" text-anchor="middle" fill="#7ab8ff" font-size="34">レ</text><text x="492" y="785" text-anchor="middle" fill="#456" font-size="8">re</text><rect x="530" y="740" width="55" height="50" rx="5" fill="#0a0a1a" stroke="#4facfe" stroke-width=".7" opacity=".7"/><text x="557" y="775" text-anchor="middle" fill="#7ab8ff" font-size="34">ロ</text><text x="557" y="785" text-anchor="middle" fill="#456" font-size="8">ro</text><rect x="595" y="740" width="55" height="50" rx="5" fill="#0a0a1a" stroke="#4facfe" stroke-width=".7" opacity=".7"/><text x="622" y="775" text-anchor="middle" fill="#4facfe" font-size="34" filter="url(#glowBlue)">ン</text><text x="622" y="785" text-anchor="middle" fill="#456" font-size="8">n</text></g><line x1="365" y1="130" x2="365" y2="800" stroke="#4a4a6a" stroke-width=".5" opacity=".3" stroke-dasharray="4,4"/><text x="500" y="795" text-anchor="middle" fill="#456" font-size="10" letter-spacing="2">Gojūon order · 46 basic characters each · Hiragana (left) · Katakana (right)</text></svg>