<svg xmlns="http://www.w3.org/2000/svg" viewBox="0 0 400 550" width="400" height="550"><rect width="400" height="550" fill="#2c1810"/><rect x="30" y="20" width="340" height="500" rx="5" fill="#8B6914" stroke="#6B4F12" stroke-width="3"/><rect x="40" y="30" width="320" height="480" rx="3" fill="#A0782C" stroke="#8B6914" stroke-width="2"/><rect x="50" y="40" width="300" height="460" rx="2" fill="#1a1a2e"/><rect x="50" y="40" width="300" height="460" fill="#1a2a1a"/><ellipse cx="200" cy="200" rx="150" ry="100" fill="#2a4a3a"/><ellipse cx="200" cy="180" rx="120" ry="70" fill="#3a5a4a"/><path d="M50 280q50-60 1e2-20 50-30 1e2-5 50-15 1e2 15v70H50z" fill="#2a4a2a"/><path d="M50 3e2q70-40 130-10 60-20 120-5 30-10 50 5v50H50z" fill="#1a3a1a"/><path d="M160 340q20-20 40-10 20-10 40 10v60H160z" fill="#4a3a2a"/><ellipse cx="200" cy="330" rx="80" ry="15" fill="#1a3a4a" opacity=".5"/><path d="M50 250l50-60 30 30 40-50 40 40 40-30 40 40 40-30 20 60z" fill="#1a3a2a" opacity=".6"/><ellipse cx="200" cy="240" rx="65" ry="80" fill="#d4a574"/><rect x="175" y="290" width="50" height="40" rx="10" fill="#d4a574"/><ellipse cx="200" cy="200" rx="75" ry="65" fill="#2a1a0a"/><path d="M125 210q-5-30 5-50t30-30 40-5q20-5 40 5t30 30 5 50q-5-20-15-35-20-20-60-20t-60 20q-10 15-15 35z" fill="#1a0a00"/><ellipse cx="138" cy="235" rx="20" ry="50" fill="#2a1a0a"/><ellipse cx="262" cy="235" rx="20" ry="50" fill="#2a1a0a"/><path d="M140 180q10-30 40-40 20-5 40 0 30 10 40 40-20-20-60-25-40 5-60 25z" fill="#1a0a00"/><path d="M185 140q5 20 7 40 3 20 6 40" stroke="#3a2a1a" stroke-width="1" fill="none"/><ellipse cx="200" cy="210" rx="40" ry="20" fill="#dbb080" opacity=".3"/><path d="M160 225q10-7 25-5" stroke="#2a1a0a" stroke-width="3" fill="none" stroke-linecap="round"/><path d="M215 220q15-2 25 5" stroke="#2a1a0a" stroke-width="3" fill="none" stroke-linecap="round"/><ellipse cx="175" cy="235" rx="14" ry="8" fill="#fff"/><ellipse cx="225" cy="235" rx="14" ry="8" fill="#fff"/><ellipse cx="175" cy="235" rx="8" ry="7" fill="#4a3520"/><ellipse cx="225" cy="235" rx="8" ry="7" fill="#4a3520"/><ellipse cx="175" cy="235" rx="4" ry="4" fill="#1a0a00"/><ellipse cx="225" cy="235" rx="4" ry="4" fill="#1a0a00"/><ellipse cx="178" cy="232" rx="2" ry="2" fill="#fff" opacity=".8"/><ellipse cx="228" cy="232" rx="2" ry="2" fill="#fff" opacity=".8"/><path d="M160 232q15-8 30 0" stroke="#1a0a00" stroke-width="1.5" fill="none"/><path d="M210 232q15-8 30 0" stroke="#1a0a00" stroke-width="1.5" fill="none"/><path d="M198 240l-3 20q5 5 10 0l-3-20" stroke="#b8895a" stroke-width="1.5" fill="none"/><ellipse cx="200" cy="265" rx="8" ry="5" fill="#c49565" opacity=".5"/><ellipse cx="194" cy="263" rx="3" ry="2" fill="#a07040" opacity=".5"/><ellipse cx="206" cy="263" rx="3" ry="2" fill="#a07040" opacity=".5"/><path d="M180 278q10-6 20-3 10-3 20 3" stroke="#8a4040" stroke-width="2" fill="none"/><path d="M182 278q18 4 36 0" stroke="#7a3535" stroke-width="1.5" fill="none"/><path d="M182 278q18-5 36 0-18 5-36 0z" fill="#9a5050" opacity=".4"/><ellipse cx="160" cy="260" rx="15" ry="10" fill="#c49565" opacity=".3"/><ellipse cx="240" cy="260" rx="15" ry="10" fill="#c49565" opacity=".3"/><ellipse cx="200" cy="295" rx="25" ry="12" fill="#d4a574" opacity=".5"/><path d="M140 320v80q0 60 60 70 60-10 60-70V320q-30-10-60-5-30-5-60 5z" fill="#2a1a0a"/><path d="M145 320q25-10 55-5 30-5 55 5-15 20-35 25-20-5-40 0-20-5-35-25z" fill="#3a2a1a"/><path d="M155 315q20 15 45 10 25 5 45-10" stroke="#4a3a2a" stroke-width="1.5" fill="none"/><path d="M170 335q30-5 60 0" stroke="#8B6914" stroke-width="1" fill="none" opacity=".5"/><path d="M175 345q25-5 50 0" stroke="#8B6914" stroke-width="1" fill="none" opacity=".5"/><ellipse cx="175" cy="385" rx="20" ry="12" fill="#d4a574"/><ellipse cx="225" cy="385" rx="20" ry="12" fill="#d4a574"/><ellipse cx="200" cy="390" rx="25" ry="10" fill="#c49565"/><rect x="210" y="378" width="6" height="15" rx="3" fill="#d4a574"/><rect x="218" y="378" width="6" height="13" rx="3" fill="#d4a574"/><rect x="226" y="380" width="5" height="11" rx="3" fill="#d4a574"/><rect x="165" y="378" width="6" height="15" rx="3" fill="#d4a574"/><rect x="157" y="378" width="6" height="13" rx="3" fill="#d4a574"/><rect x="149" y="380" width="5" height="11" rx="3" fill="#d4a574"/><path d="M140 2e2q-10 50-5 1e2 5 40 15 60" stroke="#4a3a3a" stroke-width=".5" fill="none" opacity=".3"/><path d="M260 2e2q10 50 5 1e2-5 40-15 60" stroke="#4a3a3a" stroke-width=".5" fill="none" opacity=".3"/><path d="M135 2e2q5-15 15-25 20-15 50-17 30 2 50 17 10 10 15 25" stroke="#5a4a4a" stroke-width=".5" fill="none" opacity=".2"/><ellipse cx="200" cy="305" rx="20" ry="8" fill="#2a1a0a" opacity=".2"/><ellipse cx="200" cy="200" rx="120" ry="80" fill="#3a5a4a" opacity=".1"/><text x="330" y="500" font-size="6" fill="#8B6914" font-family="serif" opacity=".5">da Vinci</text></svg>